# xmcd
#
# Track frame offsets: 
#        150
#        15238
#        30510
#        50551
#        67491
#        96480
#        110572
#        139465
#        160124
#        179297
#        206626
#        230969
#        246087
#        262031
#        279507
#        297400
#
# Disc length: 4295 seconds
#
# Revision: 0
# Processed by: cddbd v1.5.2PL0 Copyright (c) Steve Scherf et al.
# Submitted via: ExactAudioCopy v1.0b3
#
DISCID=fc10c510
DTITLE=Hobo Blues Band - A zene marad
DYEAR=2011
DGENRE=Blues-Rock
TTITLE0=Rohadt Rock and Roll
TTITLE1=Mindenki sztár
TTITLE2=Moszkva tér blues
TTITLE3=Operett
TTITLE4=Középeurópai hobo blues I.
TTITLE5=Dőlnek a szobrok
TTITLE6=Ki vagyok én?
TTITLE7=Országút blues
TTITLE8=Hosszúlábú asszony
TTITLE9=Tetovált lány
TTITLE10=3.20-as blues
TTITLE11=Édes otthon
TTITLE12=Enyém, tiéd, miénk
TTITLE13=Mata Hari
TTITLE14=Oly sokáig voltunk lenn
TTITLE15=Mesél az erdő
EXTD=
EXTT0=
EXTT1=
EXTT2=
EXTT3=
EXTT4=
EXTT5=
EXTT6=
EXTT7=
EXTT8=
EXTT9=
EXTT10=
EXTT11=
EXTT12=
EXTT13=
EXTT14=
EXTT15=
PLAYORDER=
